<?xml version="1.0" encoding="UTF-8"?>
<svg id="Layer_1" data-name="Layer 1" xmlns="http://www.w3.org/2000/svg" xmlns:xlink="http://www.w3.org/1999/xlink" viewBox="0 0 550.24 125.36">
  <defs>
    <style>
      .cls-1 {
        letter-spacing: -.02em;
      }

      .cls-2 {
        fill: url(#linear-gradient);
      }

      .cls-2, .cls-3, .cls-4, .cls-5, .cls-6, .cls-7, .cls-8, .cls-9, .cls-10 {
        stroke-width: 0px;
      }

      .cls-11 {
        fill: #fff;
        font-family: Futura-Medium, Futura;
        font-size: 55.7px;
        font-weight: 500;
      }

      .cls-12 {
        font-family: GillSans, 'Gill Sans';
        font-size: 37.35px;
      }

      .cls-12, .cls-13, .cls-14 {
        isolation: isolate;
      }

      .cls-12, .cls-9 {
        fill: #00146c;
      }

      .cls-13 {
        font-family: Krungthep, Krungthep;
        font-size: 14.3px;
      }

      .cls-13, .cls-8 {
        fill: #006c97;
      }

      .cls-15 {
        letter-spacing: 0em;
      }

      .cls-16 {
        letter-spacing: .02em;
      }

      .cls-17 {
        fill: #c6e7ff;
        stroke: #00193f;
        stroke-miterlimit: 10;
        stroke-width: 4.6px;
      }

      .cls-3 {
        fill: url(#linear-gradient-2);
      }

      .cls-18 {
        letter-spacing: 0em;
      }

      .cls-4 {
        fill: #f9ffaa;
      }

      .cls-5 {
        fill: #091230;
      }

      .cls-6 {
        fill: #0029c1;
      }

      .cls-7 {
        fill: #00c1fa;
      }

      .cls-10 {
        fill: #001221;
      }
    </style>
    <linearGradient id="linear-gradient" x1="23.6" y1="56.22" x2="42.56" y2="56.22" gradientTransform="translate(8.35 135.27) scale(1 -1)" gradientUnits="userSpaceOnUse">
      <stop offset="0" stop-color="#007ee9"/>
      <stop offset="0" stop-color="#007ce6"/>
      <stop offset=".28" stop-color="#0050a4"/>
      <stop offset=".52" stop-color="#002d6f"/>
      <stop offset=".73" stop-color="#001449"/>
      <stop offset=".9" stop-color="#000532"/>
      <stop offset="1" stop-color="#00002a"/>
    </linearGradient>
    <linearGradient id="linear-gradient-2" x1="-705.18" y1="56.31" x2="-686.22" y2="56.31" gradientTransform="translate(-628.28 135.25) rotate(-180)" xlink:href="#linear-gradient"/>
  </defs>
  <g id="Layer_10" data-name="Layer 10">
    <polygon class="cls-17" points="106.27 92.69 54.28 122.71 2.3 92.69 2.3 32.67 54.28 2.66 106.27 32.67 106.27 92.69"/>
  </g>
  <g id="Layer_2" data-name="Layer 2">
    <path class="cls-5" d="m29.07,71.75c2-.6,9.4-1.8,11.2-1.6,5.2-.2,8.4,1.8,14.2,1.8,6.2-.2,10.4-2,14-1.8,6.2,0,10.28,1.43,10.84,1.81s.16,2.39-.04,2.79-1.5,2.3-1.8,2.8c-.8,6.8-4.2,9.2-8.8,9.8-6.96.25-10.4-4-11.4-8.09-.8-3.71-1.8-3.31-2.8-3.31s-1.8-.2-2.8,3.4c-3,9-8.4,7.8-12,7.8-4.6-.2-6-2.4-7.2-5.37-.78-2.15-1.18-4.36-1.8-5.43-1-1.4-1-.8-1.2-1.2s-.8-3-.4-3.4h0Z"/>
  </g>
  <g id="Layer_3" data-name="Layer 3">
    <path class="cls-2" d="m41.26,86.06c-5.4,0-6.84-1.8-8.25-6.63-.68-2.79-1.64-4.53-.57-5.97.88-1.17,4.27-1.36,7.02-1.44,4.86.18,10.08,1.26,10.98,2.16.72.72.54,1.8,0,3.6-.43,1.38-1.33,4.75-3.43,6.67-1.42,1.3-3.87,1.54-5.75,1.61Z"/>
    <path class="cls-3" d="m67.59,85.98c5.4,0,6.84-1.8,8.25-6.63.68-2.79,1.64-4.53.57-5.97-.88-1.17-4.27-1.36-7.02-1.44-4.86.18-10.08,1.26-10.98,2.16-.72.72-.54,1.8,0,3.6.43,1.38,1.33,4.75,3.43,6.67,1.42,1.3,3.87,1.54,5.75,1.61h0Z"/>
  </g>
  <g id="Layer_4" data-name="Layer 4">
    <path class="cls-10" d="m34.07,67.15c0,.2.2.2-1,.4-5.8-2.6-7.2-6.2-9-9.8s-.6-16,1.8-17.8c6.9,1.5,12.8,8.2,14.6,12,.6,1,2.07,3.67.6,10.8-.08.39,0,.4-.2.6s-.6,0-.6-.8.6-4.6-1.6-8.6c-1.6-3.6-7-8.6-10.6-8.8-1.8,2-1.8,8.6-1.4,11.8.4,3,3.4,7.8,7.4,10.2Z"/>
    <path class="cls-10" d="m74.63,67.24c0,.2-.2.2,1,.4,5.8-2.6,7.2-6.2,9-9.8s.6-16-1.8-17.8c-6.9,1.5-12.8,8.2-14.6,12-.6,1-2.07,3.67-.6,10.8.08.39,0,.4.2.6s.6,0,.6-.8c0-.4-.6-4.6,1.6-8.6,1.6-3.6,7-8.6,10.6-8.8,1.8,2,1.8,8.6,1.4,11.8-.4,3-3.4,7.8-7.4,10.2Z"/>
    <g>
      <path class="cls-6" d="m37.52,55.47c1.43,4.12.68,8.12-1.67,8.94-2.19.74-6.19-3.46-6.84-5.99-.75-3.87.07-9.54.45-9.67s5.6,1.4,8.05,6.73h0Z"/>
      <path class="cls-10" d="m37.61,55.44c.56,1.61.86,3.3.71,5-.22,2.87-2.08,5.48-5.06,3.49-1.84-1.2-3.68-3.25-4.38-5.36-.53-2.71-.38-5.5,0-8.21.09-.53.16-1.07.38-1.57.03-.06.09-.15.17-.17.3-.05.6.08.88.15,3.22,1.12,5.91,3.58,7.32,6.67h0Zm-.19.08c-1.46-3.18-4.54-5.89-7.89-6.64-.21.45-.28,1.02-.37,1.53-.12.82-.2,1.66-.25,2.49-.09,1.67-.08,3.35.17,4.99.24,1.64,1.35,3.01,2.43,4.21.86.88,1.83,1.71,2.99,2.12.78.29,1.59.1,2.19-.47,2.01-2.01,1.55-5.75.72-8.23h0Z"/>
    </g>
    <g>
      <path class="cls-6" d="m71.54,54.88c-1.43,4.12-.68,8.12,1.67,8.94,2.19.74,6.19-3.46,6.84-5.99.75-3.87-.07-9.54-.45-9.67s-5.6,1.4-8.05,6.73h0Z"/>
      <path class="cls-10" d="m71.63,54.92c-.76,2.31-1.11,5.02,0,7.27.98,1.77,2.36,1.98,4.01.9,1.78-1.15,4.03-3.63,4.33-5.79.25-1.64.26-3.32.17-4.99-.05-.83-.13-1.67-.25-2.49-.09-.51-.15-1.08-.36-1.53-3.35.75-6.43,3.46-7.89,6.64h0Zm-.19-.08c1.41-3.09,4.1-5.56,7.32-6.67.27-.07.55-.18.84-.16.1.01.17.11.2.18.22.5.28,1.04.38,1.57.37,2.71.52,5.5,0,8.21-.45,1.44-1.4,2.66-2.41,3.74-1.87,1.91-4.65,3.79-6.37.6-1.12-2.34-.74-5.09.06-7.47h0Z"/>
    </g>
  </g>
  <g id="Layer_9" data-name="Layer 9">
    <path class="cls-4" d="m54.47,9.35c-2.2,1.6-4.2,8.6-3.8,10.4,1.2,6.4,5.2,7.6,8,10.6.6-3.6-2.2-22.4-4.2-21Z"/>
    <path class="cls-4" d="m50.27,22.75c.4.6,1.8,6,8.9,10.3,1.3.5,1.15,6.99,1.15,6.99,0,0,.55,2.51-9.15-3.79-.3-.7-3.3-4.9-.9-13.5h0Z"/>
    <path class="cls-4" d="m48.97,35.85c-.5.1-1.1,4.9-.9,5.4s5.7,3.6,5.7,3.6l-4-7.6s-.5-1.5-.8-1.4h0Z"/>
    <g class="cls-14">
      <text class="cls-12" transform="translate(43.02 116.74) rotate(-13.72) scale(.98 1)"><tspan x="0" y="0">C</tspan></text>
    </g>
    <g class="cls-14">
      <text class="cls-13" transform="translate(46.5 103.84) rotate(15.59) scale(1.12 1)"><tspan x="0" y="0">W</tspan></text>
    </g>
  </g>
  <g id="Layer_5" data-name="Layer 5">
    <path class="cls-9" d="m66.67,59.95l-11.71,7.48-.81-1.3c-.12-.19-.26-.35-.44-.48l-1.58-1.22c-.67-.52-1.62-.52-2.28.01l-1.03.86-6.95-5.75,6.2-21.2,1,2.2,1-5.6.8,2.2,3.6-10.6,3.4,9.8,1-1.6,1.2,5.6,1-2.2,5.6,21.8h0Z"/>
  </g>
  <g id="Layer_6" data-name="Layer 6">
    <polygon class="cls-8" points="62.17 62.85 54.97 67.45 53.27 64.35 48.77 65.25 46.37 63.25 54.47 35.35 62.17 62.85"/>
  </g>
  <g id="Layer_7" data-name="Layer 7">
    <polygon class="cls-7" points="58.97 64.85 54.97 67.45 53.25 64.54 48.77 65.25 54.27 48.15 58.97 64.85"/>
  </g>
  <g id="Layer_8" data-name="Layer 8">
    <path class="cls-9" d="m54.97,67.45c.1-.1-.1-6.1-2.3-6.3-1.6.2-3,2.6-3.9,4.5s-2.3,10.3-1.9,10.3,3-10.4,5.6-10.8c1.2,0,2.4,2.4,2.5,2.3Z"/>
  </g>
  <text class="cls-11" transform="translate(113.72 84.09)"><tspan x="0" y="0">Ch</tspan><tspan class="cls-16" x="69.57" y="0">r</tspan><tspan x="91.25" y="0">is </tspan><tspan class="cls-18" x="144.91" y="0">W</tspan><tspan class="cls-15" x="204.53" y="0">illough</tspan><tspan class="cls-1" x="373.86" y="0">b</tspan><tspan x="406.25" y="0">y</tspan></text>
</svg>