<?xml version="1.0" encoding="UTF-8"?>
<svg xmlns="http://www.w3.org/2000/svg" xmlns:xlink="http://www.w3.org/1999/xlink" viewBox="0 0 542.83 626.81">
  <defs>
    <style>
      .cls-1 {
        fill: url(#linear-gradient);
      }

      .cls-2 {
        fill: #f9ffaa;
      }

      .cls-3 {
        fill: #0029c1;
      }

      .cls-4 {
        fill: #00c1fa;
      }

      .cls-5, .cls-6 {
        fill: #006c97;
      }

      .cls-7 {
        fill: #001221;
      }

      .cls-8, .cls-9 {
        fill: #00146c;
      }

      .cls-10 {
        fill: #091230;
      }

      .cls-9 {
        font-family: GillSans, 'Gill Sans';
        font-size: 186.77px;
      }

      .cls-6 {
        font-family: Krungthep, Krungthep;
        font-size: 71.5px;
      }

      .cls-11 {
        fill: url(#linear-gradient-2);
      }

      .cls-12 {
        fill: #c6e7ff;
        stroke: #00193f;
        stroke-miterlimit: 10;
        stroke-width: 23px;
      }
    </style>
    <linearGradient id="linear-gradient" x1="159.79" y1="395.22" x2="254.58" y2="395.22" gradientUnits="userSpaceOnUse">
      <stop offset="0" stop-color="#007ee9"/>
      <stop offset="0" stop-color="#007ce6"/>
      <stop offset=".28" stop-color="#0050a4"/>
      <stop offset=".52" stop-color="#002d6f"/>
      <stop offset=".73" stop-color="#001449"/>
      <stop offset=".9" stop-color="#000532"/>
      <stop offset="1" stop-color="#00002a"/>
    </linearGradient>
    <linearGradient id="linear-gradient-2" x1="270.45" y1="394.8" x2="365.24" y2="394.8" gradientTransform="translate(654.92) rotate(-180) scale(1 -1)" xlink:href="#linear-gradient"/>
  </defs>
  <g id="Layer_10" data-name="Layer 10">
    <polygon class="cls-12" points="531.33 463.46 271.42 613.53 11.5 463.46 11.5 163.34 271.41 13.28 531.33 163.34 531.33 463.46"/>
  </g>
  <g id="Layer_2" data-name="Layer 2">
    <path class="cls-10" d="m145.33,358.74c10-3,47-9,56-8,26-1,42,9,71,9,31-1,52-10,70-9,31,0,51.39,7.14,54.19,9.07s.81,11.93-.19,13.93-7.5,11.5-9,14c-4,34-21,46-44,49-34.78,1.26-52-20-57-40.43-4-18.57-9-16.57-14-16.57s-9-1-14,17c-15,45-42,39-60,39-23-1-30-12-36-26.86-3.9-10.73-5.89-21.8-9-27.14-5-7-5-4-6-6s-4-15-2-17Z"/>
  </g>
  <g id="Layer_3" data-name="Layer 3">
    <path class="cls-1" d="m206.31,430.32c-27,0-34.2-9-41.27-33.17-3.4-13.95-8.21-22.67-2.83-29.83,4.39-5.83,21.35-6.8,35.1-7.2,24.3.9,50.4,6.3,54.9,10.8,3.6,3.6,2.7,9,0,18-2.15,6.88-6.65,23.75-17.14,33.34-7.09,6.48-19.33,7.7-28.76,8.06Z"/>
    <path class="cls-11" d="m337.96,429.9c27,0,34.2-9,41.27-33.17,3.4-13.95,8.21-22.67,2.83-29.83-4.39-5.83-21.35-6.8-35.1-7.2-24.3.9-50.4,6.3-54.9,10.8-3.6,3.6-2.7,9,0,18,2.15,6.88,6.65,23.75,17.14,33.34,7.09,6.48,19.33,7.7,28.76,8.06Z"/>
  </g>
  <g id="Layer_4" data-name="Layer 4">
    <path class="cls-7" d="m170.33,335.74c0,1,1,1-5,2-29-13-36-31-45-49-9-18-3-80,9-89,34.5,7.5,64,41,73,60,3,5,10.34,18.37,3,54-.4,1.96,0,2-1,3s-3,0-3-4,3-23-8-43c-8-18-35-43-53-44-9,10-9,43-7,59,2,15,17,39,37,51Z"/>
    <path class="cls-7" d="m373.16,336.21c0,1-1,1,5,2,29-13,36-31,45-49s3-80-9-89c-34.5,7.5-64,41-73,60-3,5-10.34,18.37-3,54,.4,1.96,0,2,1,3s3,0,3-4c0-2-3-23,8-43,8-18,35-43,53-44,9,10,9,43,7,59-2,15-17,39-37,51Z"/>
    <g>
      <path class="cls-3" d="m187.59,277.37c7.14,20.61,3.41,40.62-8.33,44.69-10.93,3.68-30.93-17.32-34.19-29.96-3.74-19.37.33-47.69,2.26-48.37s28,7,40.26,33.63Z"/>
      <path class="cls-7" d="m188.06,277.18c2.78,8.03,4.28,16.5,3.57,25-1.09,14.33-10.42,27.41-25.32,17.46-9.21-6-18.41-16.27-21.89-26.81-2.63-13.54-1.88-27.48-.03-41.05.47-2.63.8-5.33,1.88-7.85.15-.32.44-.74.83-.87,1.52-.25,2.99.38,4.38.75,16.11,5.58,29.53,17.92,36.58,33.37h0Zm-.94.38c-7.31-15.9-22.7-29.46-39.45-33.2-1.06,2.23-1.38,5.09-1.83,7.64-.62,4.12-1.01,8.28-1.25,12.45-.45,8.33-.39,16.73.85,24.95,1.2,8.22,6.73,15.05,12.17,21.03,4.28,4.39,9.15,8.54,14.97,10.61,3.9,1.47,7.96.48,10.93-2.36,10.04-10.06,7.75-28.75,3.61-41.13h0Z"/>
    </g>
    <g>
      <path class="cls-3" d="m357.69,274.41c-7.14,20.61-3.41,40.62,8.33,44.69,10.93,3.68,30.93-17.32,34.19-29.96,3.74-19.37-.33-47.69-2.26-48.37s-28,7-40.26,33.63Z"/>
      <path class="cls-7" d="m358.16,274.6c-3.78,11.54-5.55,25.09-.04,36.33,4.9,8.84,11.8,9.9,20.05,4.48,8.92-5.77,20.16-18.17,21.66-28.96,1.24-8.21,1.31-16.62.85-24.95-.25-4.17-.63-8.33-1.25-12.45-.45-2.55-.77-5.42-1.82-7.64-16.76,3.74-32.14,17.29-39.45,33.2h0Zm-.94-.38c7.05-15.46,20.48-27.79,36.58-33.37,1.34-.37,2.73-.92,4.2-.79.48.06.84.54,1.01.91,1.09,2.52,1.41,5.22,1.88,7.85,1.85,13.57,2.59,27.51-.03,41.05-2.26,7.18-6.99,13.28-12.07,18.69-9.35,9.56-23.24,18.96-31.85,2.99-5.62-11.7-3.72-25.43.28-37.33h0Z"/>
    </g>
  </g>
  <g id="Layer_9" data-name="Layer 9">
    <path class="cls-2" d="m272.33,46.74c-11,8-21,43-19,52,6,32,26,38,40,53,3-18-11-112-21-105Z"/>
    <path class="cls-2" d="m251.33,113.74c2,3,9,30,44.5,51.5,6.5,2.5,5.76,34.97,5.76,34.97,0,0,2.74,12.53-45.76-18.97-1.5-3.5-16.5-24.5-4.5-67.5Z"/>
    <path class="cls-2" d="m244.83,179.24c-2.5.5-5.5,24.5-4.5,27s28.5,18,28.5,18l-20-38s-2.5-7.5-4-7Z"/>
    <text class="cls-9" transform="translate(215.09 583.72) rotate(-13.72) scale(.98 1)"><tspan x="0" y="0">C</tspan></text>
    <text class="cls-6" transform="translate(232.49 519.21) rotate(15.59) scale(1.12 1)"><tspan x="0" y="0">W</tspan></text>
  </g>
  <g id="Layer_5" data-name="Layer 5">
    <path class="cls-8" d="m333.33,299.74l-58.55,37.42-4.07-6.52c-.58-.93-1.32-1.74-2.18-2.41l-7.9-6.12c-3.37-2.61-8.08-2.58-11.41.07l-5.14,4.29-34.74-28.74,31-106,5,11,5-28,4,11,18-53,17,49,5-8,6,28,5-11,28,109Z"/>
  </g>
  <g id="Layer_6" data-name="Layer 6">
    <polygon class="cls-5" points="310.83 314.24 274.83 337.24 266.33 321.74 243.83 326.24 231.83 316.24 272.33 176.74 310.83 314.24"/>
  </g>
  <g id="Layer_7" data-name="Layer 7">
    <polygon class="cls-4" points="294.83 324.24 274.83 337.24 266.24 322.72 243.83 326.24 271.33 240.74 294.83 324.24"/>
  </g>
  <g id="Layer_8" data-name="Layer 8">
    <path class="cls-8" d="m274.83,337.24c.5-.5-.5-30.5-11.5-31.5-8,1-15,13-19.5,22.5s-11.5,51.5-9.5,51.5,15-52,28-54c6,0,12,12,12.5,11.5Z"/>
  </g>
</svg>